# Blender 4.5.3 LTS
# www.blender.org
mtllib gas_can.mtl
o canister
v -0.208854 0.625000 -0.125000
v -0.208854 0.625000 0.125000
v 0.166667 0.625000 -0.125000
v 0.166667 0.625000 0.125000
v -0.166667 -0.000000 -0.125000
v -0.166667 0.000000 0.125000
v 0.166667 -0.000000 -0.125000
v 0.166667 0.000000 0.125000
v 0.250000 0.031250 -0.125000
v 0.250000 0.531250 -0.125000
v 0.250000 0.031250 0.125000
v 0.250000 0.531250 0.125000
v -0.250000 0.031250 -0.125000
v -0.250000 0.531250 -0.125000
v -0.250000 0.031250 0.125000
v -0.250000 0.531250 0.125000
v -0.166667 0.031250 0.187500
v -0.166667 0.531250 0.187500
v 0.166667 0.031250 0.187500
v 0.166667 0.531250 0.187500
v -0.166667 0.031250 -0.187500
v -0.166667 0.531250 -0.187500
v 0.166667 0.031250 -0.187500
v 0.166667 0.531250 -0.187500
v 0.166103 0.624552 -0.124702
v -0.209418 0.624552 -0.124702
vn -1.0000 -0.0000 -0.0000
vn 1.0000 -0.0000 -0.0000
vn -0.0000 -1.0000 -0.0000
vn -0.0000 -0.0000 -1.0000
vn -0.0000 -0.0000 1.0000
vn -0.9157 0.4019 -0.0000
vn 0.7474 0.6644 -0.0000
vn -0.0000 0.5547 -0.8321
vn -0.0000 0.5547 0.8320
vn -0.3511 -0.9363 -0.0000
vn 0.3511 -0.9363 -0.0000
vn -0.0000 -0.8944 -0.4472
vn -0.0000 -0.8944 0.4472
vn 0.6000 -0.0000 0.8000
vn 0.6000 -0.0000 -0.8000
vn -0.3180 -0.8480 -0.4240
vn 0.3180 -0.8480 -0.4240
vn -0.3180 -0.8480 0.4240
vn 0.3180 -0.8480 0.4240
vn -0.5802 0.2547 -0.7736
vn 0.5294 0.4706 -0.7059
vn -0.5802 0.2547 0.7736
vn 0.5294 0.4706 0.7059
vn -0.6000 -0.0000 0.8000
vn -0.6000 -0.0000 -0.8000
vn -0.0000 1.0000 -0.0018
vt 0.406250 0.605059
vt 0.281250 0.605059
vt 0.281250 0.355059
vt 0.406250 0.355059
vt 0.531250 0.750000
vt 0.531250 1.000000
vt 0.406250 1.000000
vt 0.406250 0.750000
vt 0.045572 0.495876
vt 0.212241 0.495876
vt 0.212241 0.620876
vt 0.045572 0.620876
vt 0.170444 0.693663
vt 0.170444 0.943663
vt 0.003775 0.943663
vt 0.003775 0.693663
vt 0.379037 0.912413
vt 0.212369 0.912413
vt 0.212369 0.662413
vt 0.379037 0.662413
vt 0.406250 0.656250
vt 0.281250 0.656250
vt 0.656250 0.937500
vt 0.656250 1.000000
vt 0.531250 0.937500
vt 0.191537 1.000000
vt 0.003775 1.000000
vt 0.379037 0.968750
vt 0.191275 0.968750
vt 0.256741 0.620876
vt 0.256741 0.495876
vt 0.001072 0.620876
vt 0.001072 0.495876
vt 0.212241 0.655814
vt 0.045572 0.655814
vt 0.212241 0.460939
vt 0.045572 0.460939
vt 0.408853 0.571875
vt 0.408853 0.321875
vt 0.460938 0.321875
vt 0.460938 0.571875
vt 0.468750 0.290625
vt 0.520834 0.290625
vt 0.520834 0.540625
vt 0.468750 0.540625
vt 0.256189 0.627863
vt 0.212241 0.655815
vt 0.045572 0.655815
vt 0.001623 0.627863
vt 0.212241 0.460938
vt 0.256189 0.488889
vt 0.001623 0.488889
vt 0.045572 0.460938
vt 0.038228 0.437500
vt 0.002603 0.389028
vt 0.054688 0.389028
vt 0.502084 0.593750
vt 0.547709 0.593750
vt 0.531250 0.545278
vt 0.583334 0.545278
vt 0.427603 0.625000
vt 0.531250 0.295278
vt 0.583334 0.295278
vt 0.002603 0.139028
vt 0.054688 0.139028
vt 0.406250 0.625150
vt 0.593750 0.624727
vt 0.593750 0.749577
s 1
usemtl m_48aba039-1a33-5ee9-4e4b-7ccd44a7eac5
f 16/1/1 14/2/1 13/3/1 15/4/1
f 9/5/2 10/6/2 12/7/2 11/8/2
f 8/9/3 6/10/3 5/11/3 7/12/3
f 21/13/4 22/14/4 24/15/4 23/16/4
f 20/17/5 18/18/5 17/19/5 19/20/5
f 2/21/6 1/22/6 14/2/6 16/1/6
f 10/23/7 3/24/7 4/6/7 12/25/7
f 22/14/8 1/26/8 3/27/8 24/15/8
f 4/28/9 2/29/9 18/18/9 20/17/9
f 13/30/10 5/11/10 6/10/10 15/31/10
f 8/9/11 7/12/11 9/32/11 11/33/11
f 7/12/12 5/11/12 21/34/12 23/35/12
f 17/36/13 6/10/13 8/9/13 19/37/13
f 20/38/14 19/39/14 11/40/14 12/41/14
f 9/42/15 23/43/15 24/44/15 10/45/15
f 5/11/16 13/46/16 21/47/16
f 7/12/17 23/48/17 9/49/17
f 6/10/18 17/50/18 15/51/18
f 8/9/19 11/52/19 19/53/19
f 1/54/20 22/55/20 14/56/20
f 3/57/21 10/45/21 24/44/21
f 2/58/22 16/59/22 18/60/22
f 4/61/23 20/38/23 12/41/23
f 15/62/24 17/63/24 18/60/24 16/59/24
f 22/55/25 21/64/25 13/65/25 14/56/25
f 4/8/26 25/66/26 26/67/26 2/68/26
o handle
v -0.141864 0.675000 -0.062297
v -0.051886 0.675000 -0.047079
v -0.137380 0.694605 -0.093223
v -0.047402 0.694605 -0.078005
v -0.141864 0.711084 -0.062297
v -0.051886 0.711084 -0.047079
v -0.146348 0.694605 -0.031370
v -0.056370 0.694605 -0.016152
v -0.146348 0.656958 -0.031370
v -0.056370 0.656958 -0.016152
v -0.141864 0.638916 -0.062297
v -0.051886 0.638916 -0.047078
v -0.137380 0.656958 -0.093223
v -0.047402 0.656958 -0.078005
v -0.156250 0.625000 -0.062500
v -0.174292 0.625000 -0.093750
v -0.174292 0.656250 -0.093750
v -0.192335 0.625000 -0.062500
v -0.192335 0.656250 -0.062500
v -0.174292 0.625000 -0.031250
v -0.174292 0.656250 -0.031250
v -0.138208 0.625000 -0.031250
v -0.138208 0.656250 -0.031250
v -0.120166 0.625000 -0.062500
v -0.120166 0.656250 -0.062500
v -0.138208 0.625000 -0.093750
v -0.138208 0.656250 -0.093750
v -0.137500 0.658520 -0.031250
v -0.137500 0.640478 -0.062500
v -0.137500 0.676562 -0.062500
v -0.137500 0.658520 -0.093750
v -0.137500 0.694605 -0.093750
v -0.145313 0.694605 -0.031250
v -0.142188 0.711084 -0.062500
v -0.037500 0.625000 -0.046875
v -0.020560 0.625000 -0.015015
v -0.020560 0.656250 -0.015015
v -0.001437 0.625000 -0.045616
v -0.001437 0.656250 -0.045616
v -0.018378 0.625000 -0.077476
v -0.018378 0.656250 -0.077476
v -0.054440 0.625000 -0.078736
v -0.054440 0.656250 -0.078736
v -0.073562 0.625000 -0.048134
v -0.073562 0.656250 -0.048134
v -0.056622 0.625000 -0.016274
v -0.056622 0.656250 -0.016274
v -0.055148 0.658520 -0.078760
v -0.056239 0.640478 -0.047530
v -0.056239 0.676562 -0.047530
v -0.057329 0.658520 -0.016299
v -0.057329 0.694605 -0.016299
v -0.047340 0.694605 -0.078487
v -0.051554 0.711084 -0.047366
vn -0.9897 -0.0000 -0.1435
vn 0.0778 0.8845 -0.4600
vn 0.9897 -0.0000 0.1435
vn -0.0778 0.8845 0.4600
vn -0.1668 -0.0000 0.9860
vn -0.0834 -0.8660 0.4931
vn 0.0834 -0.8660 -0.4931
vn 0.1668 -0.0000 -0.9860
vn -0.0000 -1.0000 -0.0000
vn -0.8660 -0.0000 -0.5000
vn 0.9879 0.1341 0.0775
vn -0.8660 -0.0000 0.5000
vn 0.9769 0.1326 0.1676
vn -0.0000 -0.0000 1.0000
vn 0.9701 0.2100 0.1213
vn 0.8660 -0.0000 0.5000
vn 1.0000 -0.0000 -0.0000
vn 0.8660 -0.0000 -0.5000
vn -0.0000 -0.0000 -1.0000
vn -0.9409 0.2934 -0.1694
vn -0.6189 0.6802 0.3927
vn -0.0004 -0.0000 -1.0000
vn 0.0002 -0.0000 1.0000
vn -0.7102 0.6495 0.2715
vn -0.6523 0.6257 -0.4278
vn 0.8361 -0.2608 -0.4827
vn 0.8480 -0.0000 0.5299
vn -0.9846 0.1342 -0.1119
vn 0.8829 -0.0000 -0.4695
vn -0.9704 0.1327 -0.2016
vn 0.0349 -0.0000 -0.9994
vn -0.9653 0.2100 -0.1551
vn -0.8480 -0.0000 -0.5299
vn -0.9994 -0.0000 -0.0349
vn -0.8829 -0.0000 0.4695
vn -0.0349 -0.0000 0.9994
vn 0.9344 0.2934 0.2021
vn 0.9344 0.2934 0.2022
vn 0.6322 0.6802 -0.3709
vn -0.0351 -0.0000 0.9994
vn 0.0346 0.0001 -0.9994
vn 0.7193 0.6495 -0.2466
vn 0.7193 0.6495 -0.2465
vn 0.6370 0.6257 0.4503
vn -0.8525 -0.2605 0.4533
vt 0.100075 0.671875
vt 0.091834 0.687500
vt 0.082031 0.671875
vt 0.282128 1.000000
vt 0.282496 0.968750
vt 0.328125 0.968750
vt 0.327757 1.000000
vt 0.154334 0.656250
vt 0.162575 0.671875
vt 0.144531 0.671875
vt 0.091834 0.656250
vt 0.218750 1.000000
vt 0.219119 0.968750
vt 0.264748 0.968750
vt 0.264379 1.000000
vt 0.154334 0.687500
vt 0.073009 0.656250
vt 0.593750 0.875000
vt 0.625000 0.875000
vt 0.625000 0.906250
vt 0.593750 0.906250
vt 0.135509 0.687500
vt 0.063988 0.671875
vt 0.599147 0.437500
vt 0.617188 0.437500
vt 0.616256 0.468750
vt 0.598216 0.468750
vt 0.126487 0.671875
vt 0.073009 0.687500
vt 0.594681 0.468750
vt 0.612722 0.468750
vt 0.611791 0.500000
vt 0.593750 0.500000
vt 0.135509 0.656250
vt 0.593750 0.843750
vt 0.625000 0.843750
vt 0.548192 0.776788
vt 0.564952 0.783472
vt 0.550783 0.794644
vt 0.593750 0.812500
vt 0.593750 0.781250
vt 0.625000 0.781250
vt 0.625000 0.812500
vt 0.216309 0.405981
vt 0.224762 0.421665
vt 0.207345 0.421635
vt 0.534023 0.787956
vt 0.281250 0.375000
vt 0.281250 0.406250
vt 0.250000 0.406250
vt 0.250000 0.375000
vt 0.216780 0.437500
vt 0.207344 0.421635
vt 0.536614 0.805812
vt 0.630683 0.669103
vt 0.630683 0.687147
vt 0.615058 0.687147
vt 0.615058 0.669103
vt 0.198322 0.437257
vt 0.207343 0.421634
vt 0.553370 0.812500
vt 0.189300 0.421632
vt 0.207344 0.421632
vt 0.567539 0.801328
vt 0.597069 0.406247
vt 0.597069 0.388206
vt 0.612694 0.388206
vt 0.612694 0.406247
vt 0.198322 0.406007
vt 0.595880 0.650856
vt 0.595880 0.632812
vt 0.611505 0.632812
vt 0.611505 0.650856
vt 0.216366 0.406007
vt 0.628719 0.890625
vt 0.645009 0.897034
vt 0.645084 0.898222
vt 0.628353 0.900775
vt 0.062500 0.359375
vt 0.080341 0.362072
vt 0.074791 0.372394
vt 0.630683 0.651209
vt 0.612639 0.651209
vt 0.613923 0.687500
vt 0.595880 0.683594
vt 0.609985 0.553455
vt 0.593750 0.560590
vt 0.593750 0.523438
vt 0.610596 0.529526
vt 0.632812 0.695312
vt 0.628488 0.712599
vt 0.601917 0.712599
vt 0.595671 0.695690
vt 0.613868 0.388384
vt 0.612694 0.406250
vt 0.083995 0.437500
vt 0.067480 0.430234
vt 0.082030 0.419566
vt 0.218750 0.406250
vt 0.218750 0.375000
vt 0.135247 0.429958
vt 0.126799 0.414271
vt 0.144215 0.414303
vt 0.098545 0.426831
vt 0.593750 0.750000
vt 0.593750 0.718750
vt 0.625000 0.718750
vt 0.625000 0.750000
vt 0.134783 0.398438
vt 0.144218 0.414303
vt 0.096580 0.408897
vt 0.595880 0.588706
vt 0.595880 0.570666
vt 0.611505 0.570666
vt 0.611505 0.588706
vt 0.153242 0.398678
vt 0.144219 0.414304
vt 0.080067 0.401631
vt 0.162263 0.414303
vt 0.144220 0.414303
vt 0.065517 0.412300
vt 0.613870 0.414062
vt 0.613870 0.432106
vt 0.598245 0.432106
vt 0.598245 0.414062
vt 0.153242 0.429928
vt 0.630683 0.606959
vt 0.630683 0.625000
vt 0.615058 0.625000
vt 0.615058 0.606959
vt 0.135198 0.429928
vt 0.110881 0.375000
vt 0.093959 0.370512
vt 0.093750 0.369341
vt 0.110072 0.364875
vt 0.648438 0.937500
vt 0.630516 0.935425
vt 0.635700 0.924916
vt 0.595880 0.606606
vt 0.613923 0.606606
vt 0.612639 0.570312
vt 0.630683 0.574219
vt 0.250612 0.438730
vt 0.281250 0.431594
vt 0.281250 0.468750
vt 0.250000 0.462662
vt 0.000000 0.687500
vt 0.004323 0.656250
vt 0.030899 0.656250
vt 0.037143 0.687123
vt 0.597067 0.431928
vt 0.598245 0.414064
s 1
usemtl m_48aba039-1a33-5ee9-4e4b-7ccd44a7eac5
f 31/69/27 29/70/27 27/71/27
f 29/72/28 31/73/28 32/74/28 30/75/28
f 30/76/29 32/77/29 28/78/29
f 33/79/27 31/69/27 27/71/27
f 31/80/30 33/81/30 34/82/30 32/83/30
f 32/77/29 34/84/29 28/78/29
f 35/85/27 33/79/27 27/71/27
f 33/86/31 35/87/31 36/88/31 34/89/31
f 34/84/29 36/90/29 28/78/29
f 37/91/27 35/85/27 27/71/27
f 35/92/32 37/93/32 38/94/32 36/95/32
f 36/90/29 38/96/29 28/78/29
f 39/97/27 37/91/27 27/71/27
f 37/98/33 39/99/33 40/100/33 38/101/33
f 38/96/29 40/102/29 28/78/29
f 29/70/27 39/97/27 27/71/27
f 39/103/34 29/104/34 30/87/34 40/86/34
f 40/102/29 30/76/29 28/78/29
f 44/105/35 42/106/35 41/107/35
f 42/108/36 44/109/36 45/110/36 43/111/36
f 58/112/37 60/113/37 56/114/37
f 46/115/35 44/105/35 41/107/35
f 44/116/38 46/117/38 47/118/38 45/119/38
f 60/113/39 59/120/39 56/121/39
f 48/122/35 46/115/35 41/107/35
f 46/123/40 48/124/40 49/125/40 47/126/40
f 59/120/41 54/127/41 56/128/41
f 50/129/35 48/122/35 41/107/35
f 48/111/42 50/104/42 51/103/42 49/108/42
f 54/127/43 55/130/43 56/131/43
f 52/132/35 50/129/35 41/107/35
f 50/133/44 52/134/44 53/135/44 51/136/44
f 55/130/43 57/137/43 56/131/43
f 42/106/35 52/132/35 41/107/35
f 52/138/45 42/139/45 43/140/45 53/141/45
f 57/137/43 58/142/43 56/131/43
f 55/143/46 49/144/46 54/145/46 51/146/46
f 57/147/47 55/148/47 51/149/47
f 58/150/45 57/151/48 53/141/45
f 54/152/49 59/153/40 49/125/40
f 59/154/50 60/155/50 45/156/50 47/157/50
f 60/158/51 58/159/51 43/160/51 45/161/51
f 57/162/52 51/163/52 53/135/52
f 58/150/45 53/141/45 43/140/45
f 59/153/40 47/126/40 49/125/40
f 64/164/35 62/165/35 61/166/35
f 62/119/53 64/118/53 65/167/53 63/168/53
f 78/169/54 80/170/54 76/171/54
f 66/172/35 64/164/35 61/166/35
f 64/173/55 66/174/55 67/175/55 65/176/55
f 80/170/56 79/177/56 76/178/56
f 68/179/35 66/172/35 61/166/35
f 66/180/57 68/181/57 69/182/57 67/183/57
f 79/177/58 74/184/58 76/185/58
f 70/186/35 68/179/35 61/166/35
f 68/109/59 70/173/59 71/176/59 69/110/59
f 74/184/60 75/187/60 76/188/60
f 72/189/35 70/186/35 61/166/35
f 70/190/61 72/191/61 73/192/61 71/193/61
f 75/187/60 77/194/60 76/188/60
f 62/165/35 72/189/35 61/166/35
f 72/195/62 62/196/62 63/197/62 73/198/62
f 77/194/60 78/199/60 76/188/60
f 75/200/63 69/201/64 74/202/63 71/203/64
f 77/204/65 75/205/65 71/206/65
f 78/207/62 77/208/66 73/198/62
f 74/209/67 79/210/57 69/182/57
f 79/211/68 80/212/69 65/213/68 67/214/68
f 80/215/70 78/216/70 63/217/70 65/218/70
f 77/219/71 71/220/71 73/192/71
f 78/207/62 73/198/62 63/197/62
f 79/210/57 67/183/57 69/182/57
o lid
v 0.093750 0.625000 0.046875
v 0.093750 0.656250 0.046875
v 0.087801 0.625000 -0.006326
v 0.087801 0.656250 -0.006326
v 0.045977 0.625000 0.027087
v 0.045977 0.656250 0.027087
v 0.051925 0.625000 0.080288
v 0.051925 0.656250 0.080288
v 0.099699 0.625000 0.100076
v 0.099699 0.656250 0.100076
v 0.141523 0.625000 0.066663
v 0.141523 0.656250 0.066663
v 0.135575 0.625000 0.013462
v 0.135575 0.656250 0.013462
vn -0.0000 -1.0000 -0.0000
vn -0.6242 -0.0000 -0.7813
vn -0.0000 1.0000 -0.0000
vn -0.9938 -0.0000 0.1111
vn -0.3827 -0.0000 0.9239
vn 0.6242 -0.0000 0.7813
vn 0.9938 -0.0000 -0.1111
vn 0.3827 -0.0000 -0.9239
vt 0.584450 0.914062
vt 0.571522 0.937500
vt 0.558594 0.914062
vt 0.593750 0.906250
vt 0.625000 0.906250
vt 0.625000 0.937500
vt 0.593750 0.937500
vt 0.571522 0.828125
vt 0.584450 0.851562
vt 0.558594 0.851562
vt 0.571522 0.890625
vt 0.093750 0.375000
vt 0.125000 0.375000
vt 0.125000 0.406250
vt 0.093750 0.406250
vt 0.571522 0.875000
vt 0.545666 0.890625
vt 0.343750 0.968750
vt 0.375000 0.968750
vt 0.375000 1.000000
vt 0.343750 1.000000
vt 0.545666 0.875000
vt 0.532737 0.914062
vt 0.562500 0.750000
vt 0.593750 0.750000
vt 0.593750 0.781250
vt 0.562500 0.781250
vt 0.532737 0.851562
vt 0.545666 0.937500
vt 0.000000 0.437500
vt 0.031250 0.437500
vt 0.031250 0.468750
vt 0.000000 0.468750
vt 0.545666 0.828125
vt 0.406250 0.968750
vt 0.406250 1.000000
s 1
usemtl m_48aba039-1a33-5ee9-4e4b-7ccd44a7eac5
f 85/221/72 83/222/72 81/223/72
f 83/224/73 85/225/73 86/226/73 84/227/73
f 84/228/74 86/229/74 82/230/74
f 87/231/72 85/221/72 81/223/72
f 85/232/75 87/233/75 88/234/75 86/235/75
f 86/229/74 88/236/74 82/230/74
f 89/237/72 87/231/72 81/223/72
f 87/238/76 89/239/76 90/240/76 88/241/76
f 88/236/74 90/242/74 82/230/74
f 91/243/72 89/237/72 81/223/72
f 89/244/77 91/245/77 92/246/77 90/247/77
f 90/242/74 92/248/74 82/230/74
f 93/249/72 91/243/72 81/223/72
f 91/250/78 93/251/78 94/252/78 92/253/78
f 92/248/74 94/254/74 82/230/74
f 83/222/72 93/249/72 81/223/72
f 93/239/79 83/255/79 84/256/79 94/240/79
f 94/254/74 84/228/74 82/230/74
